<?xml version="1.0"?>
<svg xmlns="http://www.w3.org/2000/svg" height="512px" viewBox="0 0 60 56" width="512px"><g><g id="Page-1" fill="none" fill-rule="evenodd"><g id="026---Troubleshooting" fill="rgb(0,0,0)" fill-rule="nonzero"><path id="Shape" d="m36.5557 37.0229c-1.3705589-.0005126-2.7357802-.1707412-4.0645-.5068-8.8486557-2.2286302-14.2154468-11.2083225-11.9873-20.0571 2.104459-8.32777792 10.2405618-13.65264214 18.714526-12.24816254 8.4739643 1.40447961 14.45712 9.06947774 13.7623536 17.63089884-.6947664 8.5614212-7.835537 15.1614018-16.4250796 15.1811637zm-.0284-31.0529c-6.6522245.00876738-12.4511301 4.5285614-14.0839 10.9773-1.5104045 6.0100964.9613548 12.3162423 6.1534708 15.6992163 5.1921159 3.382974 11.9593191 3.0965646 16.8470234-.7130191 4.8877042-3.8095837 6.8177869-10.3020294 4.804961-16.1630116-2.0128259-5.86098221-7.5245742-9.79769414-13.7215552-9.8004856z" data-original="#000000" class="active-path" data-old_color="#000000" fill="#FFFFFF"/><path id="Shape" d="m51.1016 53.4116c-.4499427.0003237-.8446961-.2998911-.964574-.7335705s.064643-.8940176.450874-1.1248295l6.6621-3.9819c.3070052-.1905102.6929022-.2005964 1.0094402-.0263838.3165379.1742126.5144834.5056275.5177913.8669243s-.1885364.6962804-.5018315.8762595l-6.6621 3.9819c-.1544926.0929096-.3314222.1418704-.5117.1416z" data-original="#000000" class="active-path" data-old_color="#000000" fill="#FFFFFF"/><path id="Shape" d="m53.7871 56.001c-.2486284-.0003105-.4962677-.0313116-.7373-.0923-.7725392-.1923201-1.4360772-.6856168-1.8428-1.37l-5.5127-9.2246c-.8499154-1.4222195-.3859973-3.2641474 1.0362-4.1141l3.2285-1.93c1.422629-.8465348 3.2619447-.3835094 4.1142 1.0357l5.5127 9.2246c.8472273 1.4223867.3843709 3.2620965-1.0351 4.1142l-3.23 1.9292c-.4630195.278892-.993175.4265972-1.5337.4273zm-2.291-15.1553c-.1802436-.0000183-.3571071.0489242-.5117.1416l-3.2285 1.93c-.2279011.1356454-.3923865.3564805-.45709.6136809-.0647036.2572004-.0242956.5295802.11229.7569191l5.5127 9.2251c.2831726.4733473.8961449.6280222 1.37.3457l.001-.0005 3.23-1.9292c.4729668-.2845354.6270359-.8978169.3447-1.3721l-5.5131-9.2239c-.1810372-.3025028-.507763-.4875702-.8603-.4873z" data-original="#000000" class="active-path" data-old_color="#000000" fill="#FFFFFF"/><path id="Shape" d="m46.8594 43.2881c-.3522045.0003982-.6786488-.1845135-.8594-.4868l-2.3887-3.9971c-.1360964-.227715-.1761328-.5001764-.1112975-.7574169.0648353-.2572406.2292284-.4781773.4569975-.6141831l3.9971-2.3891c.4739632-.2831582 1.0877234-.1286326 1.3711.3452l2.39 3.997c.1360964.227715.1761328.5001764.1112975.7574169-.0648353.2572406-.2292284.4781773-.4569975.6141831l-3.998 2.3892c-.1546089.0929799-.3316865.1419433-.5121.1416zm-1.0186-4.6519 1.3633 2.28 2.2813-1.3628-1.3643-2.28z" data-original="#000000" class="active-path" data-old_color="#000000" fill="#FFFFFF"/><path id="Shape" d="m43.6807 39.5088c-.8989693.0028624-1.7331904-.4672914-2.1963-1.2378l-1.419-2.3843c-.1824734-.3073735-.187104-.6887466-.0121475-1.00046.1749565-.3117133.5029201-.5064101.86035-.51075.3574299-.0043398.6900241.1823365.8724975.48971l1.4151 2.3794c.075793.1267882.199145.2179983.3425771.2533116.1434322.0353133.2950302.0117965.4210229-.0653116l3.9913-2.3911c.2597301-.1552882.3445059-.4916609.1894-.7515l-1.43-2.3935c-.2842989-.4731712-.1380531-1.0868169.3291-1.3809.2216228-.1403273.4901391-.1862555.7458027-.1275654s.4772652.2171298.6154973.4400654l1.4561 2.4361c.720109 1.2075564.3269483 2.7701343-.8789 3.4931l-3.9971 2.395c-.3953135.2336055-.8461222.3567291-1.3053.3565z" data-original="#000000" class="active-path" data-old_color="#000000" fill="#FFFFFF"/><path id="Shape" d="m40.4648 32.0342h-7.93c-.8471965-.0009918-1.533753-.6875036-1.5348-1.5347v-2.9307c.0011025-.8473133.6878863-1.5338287 1.5352-1.5346h.4648v-4.0962c-.600357-.2241999-.9987902-.797147-1-1.438v-2.9312c.0011025-.8473133.6878863-1.5338287 1.5352-1.5346h4.93c.8471575.0009917 1.5336979.6874427 1.5348 1.5346v8.4654h.4648c.8473137.0007713 1.5340975.6872867 1.5352 1.5346v2.9307c-.0010474.8473524-.6878473 1.5339286-1.5352 1.5347zm-7.4648-2h7v-2h-1c-.5522847 0-1-.4477153-1-1v-9h-4v2c.5522847 0 1 .4477153 1 1v6c0 .5522847-.4477153 1-1 1h-1z" data-original="#000000" class="active-path" data-old_color="#000000" fill="#FFFFFF"/><path id="Shape" d="m36.5 15.0342c-1.4156179 0-2.6918449-.8527476-3.2335784-2.160608s-.2422883-2.8132727.7587047-3.81426573c1.000993-1.00099299 2.5064053-1.30043813 3.8142657-.75870463s2.160608 1.81796046 2.160608 3.23357836c-.0023143 1.9320372-1.5679628 3.4976857-3.5 3.5zm0-5c-.8284271 0-1.5.6715729-1.5 1.5s.6715729 1.5 1.5 1.5 1.5-.6715729 1.5-1.5c-.0008819-.8280616-.6719384-1.4991181-1.5-1.5z" data-original="#000000" class="active-path" data-old_color="#000000" fill="#FFFFFF"/><path id="Shape" d="m22.03 27.0342h-21.03c-.55228475 0-1-.4477153-1-1s.44771525-1 1-1h21.03c.5522847 0 1 .4477153 1 1s-.4477153 1-1 1z" data-original="#000000" class="active-path" data-old_color="#000000" fill="#FFFFFF"/><path id="Shape" d="m28 40.0342h-10c-.5522847 0-1-.4477153-1-1v-5c0-.5522847.4477153-1 1-1h10c.5522847 0 1 .4477153 1 1v5c0 .5522847-.4477153 1-1 1zm-9-2h8v-3h-8z" data-original="#000000" class="active-path" data-old_color="#000000" fill="#FFFFFF"/><path id="Shape" d="m32 44.0342h-18c-1.1040441-.0012675-1.9987325-.8959559-2-2 .0023149-2.2081794 1.7918206-3.9976851 4-4h14c2.2081794.0023149 3.9976851 1.7918206 4 4-.0012675 1.1040441-.8959559 1.9987325-2 2zm-16-4c-1.1040441.0012675-1.9987325.8959559-2 2h18c-.0012675-1.1040441-.8959559-1.9987325-2-2z" data-original="#000000" class="active-path" data-old_color="#000000" fill="#FFFFFF"/><path id="Shape" d="m28.94 35.0342h-23.94c-2.76007596-.0032511-4.99674886-2.239924-5-5v-25c.00325114-2.76007596 2.23992404-4.99674886 5-5h36c2.760076.00325114 4.9967489 2.23992404 5 5v2.45c0 .55228475-.4477153 1-1 1s-1-.44771525-1-1v-2.45c-.0018187-1.65610033-1.3438997-2.99818129-3-3h-36c-1.65610033.00181871-2.99818129 1.34389967-3 3v25c.00181871 1.6561003 1.34389967 2.9981813 3 3h23.94c.5522847 0 1 .4477153 1 1s-.4477153 1-1 1z" data-original="#000000" class="active-path" data-old_color="#000000" fill="#FFFFFF"/></g></g></g> </svg>
